<svg width="270" height="100" viewBox="-5 14 280 100" fill="none" xmlns="http://www.w3.org/2000/svg">
  <path d="M21.40 95L1.98 95L22.73 30.98L46.45 30.98L67.98 95L48.30 95L44.60 82.71L24.92 82.71L21.40 95ZM28.62 69.73L28.62 69.73L40.73 69.73Q38.97 63.89 37.40 57.68Q35.84 51.47 34.42 45.20L34.42 45.20Q33.09 51.47 31.69 57.68Q30.29 63.89 28.62 69.73ZM87.61 95L70.08 95L70.08 30.98L97.49 30.98L103.25 51Q103.94 53.36 104.78 57.14Q105.61 60.93 106.47 65.31Q107.33 69.69 108.06 73.90L108.06 73.90Q108.79 69.69 109.65 65.31Q110.51 60.93 111.35 57.14Q112.19 53.36 112.83 51L112.83 51L118.50 30.98L145.96 30.98L145.96 95L128.43 95L128.43 70.25Q128.43 67.80 128.56 63.57Q128.69 59.34 128.84 54.37Q128.99 49.41 129.07 44.73L129.07 44.73Q128.04 49.58 126.86 54.48Q125.68 59.38 124.58 63.50Q123.49 67.63 122.71 70.25L122.71 70.25L115.28 95L100.84 95L93.28 70.25Q92.51 67.76 91.43 63.80Q90.36 59.85 89.20 55.19Q88.04 50.53 87.01 45.80L87.01 45.80Q87.09 50.36 87.22 55.10Q87.35 59.85 87.48 63.87Q87.61 67.89 87.61 70.25L87.61 70.25L87.61 95Z" fill="white"/>
  <line x1="150.0" y1="16.5" x2="124.4" y2="109.5" stroke="white" stroke-width="3"/>
  <path d="M187.22 95.86L187.22 95.86Q179.66 95.86 173.79 93.26Q167.93 90.66 164.60 86.06Q161.27 81.46 161.27 75.49L161.27 75.49L178.71 75.49Q178.71 78.29 181.16 80.07Q183.61 81.85 187.39 81.85L187.39 81.85Q191 81.85 193.23 79.98Q195.47 78.11 195.47 75.15L195.47 75.15Q195.47 72.23 192.85 70.38Q190.23 68.53 186.02 68.53L186.02 68.53L179.48 68.53L179.48 56.50L186.02 56.50Q189.88 56.50 192.33 54.63Q194.78 52.76 194.78 49.88L194.78 49.88Q194.78 47.09 192.72 45.31Q190.66 43.52 187.39 43.52L187.39 43.52Q183.78 43.52 181.46 45.37Q179.14 47.22 179.14 50.14L179.14 50.14L162.47 50.14Q162.47 44.25 165.67 39.74Q168.87 35.23 174.50 32.67Q180.13 30.12 187.39 30.12L187.39 30.12Q194.48 30.12 199.94 32.52Q205.39 34.93 208.47 39.14Q211.54 43.35 211.54 48.77L211.54 48.77Q211.54 54.09 207.82 57.55Q204.11 61.01 198.39 61.66L198.39 61.66L198.39 62.09Q206.13 62.95 209.99 66.83Q213.86 70.72 213.86 76.61L213.86 76.61Q213.86 82.24 210.46 86.60Q207.07 90.96 201.08 93.41Q195.08 95.86 187.22 95.86ZM242.05 95.86L242.05 95.86Q234.66 95.86 228.95 93.26Q223.23 90.66 219.97 86.06Q216.70 81.46 216.62 75.49L216.62 75.49L233.55 75.49Q233.55 78.80 236.06 80.76Q238.57 82.71 242.05 82.71L242.05 82.71Q246.01 82.71 248.50 80.20Q250.99 77.68 250.99 73.52L250.99 73.52Q250.99 69.30 248.50 66.77Q246.01 64.23 242.05 64.23L242.05 64.23Q239.26 64.23 236.96 65.57Q234.66 66.90 233.55 69.22L233.55 69.22L218.25 66.21L220.74 30.98L263.80 30.98L263.80 44.90L235.01 44.90L233.80 58.99L234.15 58.99Q235.65 56.07 239.35 54.18Q243.04 52.29 247.90 52.29L247.90 52.29Q253.61 52.29 258.08 54.93Q262.55 57.57 265.15 62.24Q267.75 66.90 267.75 73L267.75 73Q267.75 79.70 264.57 84.86Q261.39 90.02 255.61 92.94Q249.83 95.86 242.05 95.86Z" fill="white"/>
</svg>
